<?xml version="1.0" encoding="UTF-8" standalone="no"?>
<!-- Created with Inkscape (http://www.inkscape.org/) -->

<svg
   xmlns:dc="http://purl.org/dc/elements/1.1/"
   xmlns:cc="http://creativecommons.org/ns#"
   xmlns:rdf="http://www.w3.org/1999/02/22-rdf-syntax-ns#"
   xmlns:svg="http://www.w3.org/2000/svg"
   xmlns="http://www.w3.org/2000/svg"
   xmlns:sodipodi="http://sodipodi.sourceforge.net/DTD/sodipodi-0.dtd"
   xmlns:inkscape="http://www.inkscape.org/namespaces/inkscape"
   sodipodi:docname="firejail-protect-symbolic.svg"
   inkscape:export-filename="/home/sam/dev/RESOURCES/gnome-icon-theme-symbolic/src/gnome-stencils.png"
   inkscape:export-xdpi="90"
   inkscape:export-ydpi="90"
   height="16"
   id="svg7384"
   version="1.1"
   inkscape:version="0.91 r13725"
   width="16">
  <metadata
     id="metadata90">
    <rdf:RDF>
      <cc:Work
         rdf:about="">
        <dc:format>image/svg+xml</dc:format>
        <dc:type
           rdf:resource="http://purl.org/dc/dcmitype/StillImage" />
        <dc:title>elementary Symbolic Icon Theme</dc:title>
      </cc:Work>
    </rdf:RDF>
  </metadata>
  <sodipodi:namedview
     inkscape:bbox-nodes="true"
     inkscape:bbox-paths="true"
     bordercolor="#666666"
     borderopacity="1"
     inkscape:current-layer="layer9"
     inkscape:cx="6.4323591"
     inkscape:cy="4.5818381"
     gridtolerance="10"
     inkscape:guide-bbox="true"
     guidetolerance="10"
     id="namedview88"
     inkscape:object-nodes="true"
     inkscape:object-paths="false"
     objecttolerance="10"
     pagecolor="#3a3b39"
     inkscape:pageopacity="1"
     inkscape:pageshadow="2"
     showborder="false"
     showgrid="false"
     showguides="true"
     inkscape:snap-bbox="true"
     inkscape:snap-bbox-edge-midpoints="true"
     inkscape:snap-bbox-midpoints="true"
     inkscape:snap-global="true"
     inkscape:snap-grids="true"
     inkscape:snap-nodes="true"
     inkscape:snap-others="false"
     inkscape:snap-to-guides="true"
     inkscape:window-height="873"
     inkscape:window-maximized="1"
     inkscape:window-width="1600"
     inkscape:window-x="0"
     inkscape:window-y="27"
     inkscape:zoom="64">
    <inkscape:grid
       dotted="false"
       empspacing="4"
       enabled="true"
       id="grid4866"
       originx="-292.0002px"
       originy="-759px"
       snapvisiblegridlinesonly="true"
       spacingx="1px"
       spacingy="1px"
       type="xygrid"
       visible="true" />
    <inkscape:grid
       color="#000000"
       dotted="true"
       empcolor="#000000"
       empopacity="0.25098039"
       empspacing="4"
       enabled="true"
       id="grid13609"
       opacity="0.1254902"
       originx="-292.0002px"
       originy="-759px"
       snapvisiblegridlinesonly="true"
       spacingx="0.5px"
       spacingy="0.5px"
       type="xygrid"
       visible="true" />
  </sodipodi:namedview>
  <title
     id="title9167">elementary Symbolic Icon Theme</title>
  <defs
     id="defs7386">
    <filter
       color-interpolation-filters="sRGB"
       id="filter7554">
      <feBlend
         id="feBlend7556"
         in2="BackgroundImage"
         mode="darken" />
    </filter>
    <filter
       color-interpolation-filters="sRGB"
       id="filter7554-7">
      <feBlend
         id="feBlend7556-6"
         in2="BackgroundImage"
         mode="darken" />
    </filter>
  </defs>
  <g
     inkscape:groupmode="layer"
     id="layer9"
     label="status"
     inkscape:label="status"
     style="display:inline"
     transform="translate(-533.0004,542)">
    <path
       inkscape:connector-curvature="0"
       d="m 540.0004,-542 c -2.01566,0 -4,2.02594 -4,4 l 0,2 10,0 0,-2 c 0,-1.99486 -1.96353,-4 -4,-4 z m 0,2 2,0 c 1.15731,0 2,1.17009 2,2 l 0,2 -6,0 0,-2 c 0,-0.66713 0.80108,-2 2,-2 z"
       id="path35244"
       style="color:#bebebe;fill:#bebebe;fill-opacity:1;fill-rule:nonzero;stroke:none;stroke-width:1;marker:none;visibility:visible;display:inline;overflow:visible;enable-background:accumulate" />
    <path
       style="color:#bebebe;display:inline;overflow:visible;visibility:visible;fill:#bebebe;fill-opacity:1;fill-rule:nonzero;stroke:none;stroke-width:1;marker:none;enable-background:accumulate"
       d="m 2,7 0,7 0,0.5 C 2,15.331 2.669,16 3.5,16 l 9,0 C 13.331,16 14,15.331 14,14.5 L 14,14 14,7 Z m 4.6386719,1.28125 c 0.081655,-0.012381 0.1650321,0 0.25,0 l 2.09375,0 c 0.7190415,0 1.3364911,0.4403584 1.5683591,1.0878906 0.0269,0.075297 0.04699,0.1662635 0.06445,0.25 l -5.3574215,0 C 5.2832774,9.4947673 5.3157579,9.3725721 5.3632812,9.2636719 5.5892868,8.7455524 6.0670125,8.3679379 6.6386719,8.28125 Z m 6.0195311,2.054688 c 0.9086,-0.01513 0.812123,1.493416 -0.08594,1.34375 l -3.3046879,0 c -0.752586,-0.004 -0.8602194,-1.174327 -0.1230469,-1.337891 0.040916,-0.0044 0.082131,-0.0044 0.1230469,0 l 3.3046879,0 c 0.02849,-0.0041 0.0572,-0.006 0.08594,-0.0059 z m -9.5312499,0.0059 c 0.04154,-0.0047 0.083433,-0.0047 0.125,0 l 3.2910157,0 c 0.3582157,-0.05718 0.7246093,0.282647 0.7246093,0.669922 0,0.387281 -0.366407,0.725122 -0.7246093,0.667969 l -3.2910157,0 C 2.9441379,11.676348 2.6595646,11.397843 2.6289062,11.070312 2.5982814,10.742815 2.8258578,10.410241 3.1269531,10.341797 Z m 2.1308594,1.955078 5.3574215,0 c -0.157473,0.757557 -0.8313191,1.337891 -1.6328121,1.337891 l -2.09375,0 c -0.801493,0 -1.4733783,-0.580301 -1.6308594,-1.337891 z"
       transform="translate(533.0004,-542)"
       id="path35246"
       inkscape:connector-curvature="0"
       sodipodi:nodetypes="ccssssccccsscccccccccccccccsccccccssc" />
    <g
       id="g4750"
       transform="translate(-15.115449,18.421352)">
      <g
         transform="translate(491.39489,-1363.2068)"
         id="layer12-9">
        <g
           transform="matrix(0.66924934,0,0,0.66924934,18.520883,269.89254)"
           id="g4741" />
      </g>
    </g>
  </g>
  <g
     inkscape:groupmode="layer"
     id="layer10"
     inkscape:label="devices"
     style="display:inline"
     transform="translate(-533.0004,542)" />
  <g
     inkscape:groupmode="layer"
     id="layer13"
     inkscape:label="places"
     style="display:inline"
     transform="translate(-533.0004,542)" />
  <g
     inkscape:groupmode="layer"
     id="layer14"
     inkscape:label="mimes"
     transform="translate(-533.0004,542)" />
  <g
     inkscape:groupmode="layer"
     id="layer15"
     inkscape:label="emblems"
     style="display:inline"
     transform="translate(-533.0004,542)" />
  <g
     inkscape:groupmode="layer"
     id="g71291"
     inkscape:label="emotes"
     style="display:inline"
     transform="translate(-533.0004,542)" />
  <g
     inkscape:groupmode="layer"
     id="layer12"
     inkscape:label="actions"
     style="display:inline"
     transform="translate(-533.0004,542)" />
</svg>
