<?xml version="1.0" encoding="UTF-8" standalone="no"?>
<!-- Created with Inkscape (http://www.inkscape.org/) -->

<svg
   xmlns:dc="http://purl.org/dc/elements/1.1/"
   xmlns:cc="http://creativecommons.org/ns#"
   xmlns:rdf="http://www.w3.org/1999/02/22-rdf-syntax-ns#"
   xmlns:svg="http://www.w3.org/2000/svg"
   xmlns="http://www.w3.org/2000/svg"
   xmlns:xlink="http://www.w3.org/1999/xlink"
   xmlns:sodipodi="http://sodipodi.sourceforge.net/DTD/sodipodi-0.dtd"
   xmlns:inkscape="http://www.inkscape.org/namespaces/inkscape"
   version="1.0"
   width="24"
   height="24"
   id="svg2457"
   inkscape:version="0.91 r13725"
   sodipodi:docname="firejail-run.svg">
  <metadata
     id="metadata40218">
    <rdf:RDF>
      <cc:Work
         rdf:about="">
        <dc:format>image/svg+xml</dc:format>
        <dc:type
           rdf:resource="http://purl.org/dc/dcmitype/StillImage" />
        <dc:title></dc:title>
      </cc:Work>
    </rdf:RDF>
  </metadata>
  <sodipodi:namedview
     pagecolor="#ffffff"
     bordercolor="#666666"
     borderopacity="1"
     objecttolerance="10"
     gridtolerance="10"
     guidetolerance="10"
     inkscape:pageopacity="0"
     inkscape:pageshadow="2"
     inkscape:window-width="1600"
     inkscape:window-height="873"
     id="namedview40216"
     showgrid="false"
     inkscape:zoom="1"
     inkscape:cx="31.842315"
     inkscape:cy="-13.436974"
     inkscape:window-x="0"
     inkscape:window-y="27"
     inkscape:window-maximized="1"
     inkscape:current-layer="svg2457" />
  <defs
     id="defs2459">
    <linearGradient
       id="linearGradient5128">
      <stop
         id="stop5130"
         style="stop-color:#e5e5e5;stop-opacity:1"
         offset="0" />
      <stop
         id="stop5132"
         style="stop-color:#ababab;stop-opacity:1"
         offset="1" />
    </linearGradient>
    <linearGradient
       x1="86.132919"
       y1="105.105"
       x2="84.63858"
       y2="20.895"
       id="linearGradient3260"
       xlink:href="#linearGradient5128"
       gradientUnits="userSpaceOnUse"
       gradientTransform="matrix(0.09614231,0,0,0.09614231,1.8468935,1.9430362)" />
    <linearGradient
       id="linearGradient3397">
      <stop
         id="stop3399"
         style="stop-color:#aaaaaa;stop-opacity:1"
         offset="0" />
      <stop
         id="stop3401"
         style="stop-color:#8c8c8c;stop-opacity:1"
         offset="1" />
    </linearGradient>
    <linearGradient
       x1="21"
       y1="0"
       x2="21"
       y2="16.004715"
       id="linearGradient3264"
       xlink:href="#linearGradient3397"
       gradientUnits="userSpaceOnUse"
       gradientTransform="translate(-17.058189,0)" />
    <linearGradient
       x1="63.9995"
       y1="3.1001"
       x2="63.9995"
       y2="122.8994"
       id="linearGradient3309"
       gradientUnits="userSpaceOnUse">
      <stop
         id="stop3311"
         style="stop-color:#f6f6f6;stop-opacity:1"
         offset="0" />
      <stop
         id="stop3313"
         style="stop-color:#cccccc;stop-opacity:1"
         offset="1" />
    </linearGradient>
    <linearGradient
       x1="25"
       y1="0"
       x2="25"
       y2="16.000105"
       id="linearGradient3262"
       xlink:href="#linearGradient3309"
       gradientUnits="userSpaceOnUse"
       gradientTransform="translate(-17.058189,0)" />
    <linearGradient
       x1="25"
       y1="0"
       x2="25"
       y2="16.000105"
       id="linearGradient2967"
       xlink:href="#linearGradient3309"
       gradientUnits="userSpaceOnUse"
       gradientTransform="translate(-17.058189,0)" />
    <linearGradient
       x1="21"
       y1="0"
       x2="21"
       y2="16.004715"
       id="linearGradient2969"
       xlink:href="#linearGradient3397"
       gradientUnits="userSpaceOnUse"
       gradientTransform="translate(-17.058189,0)" />
    <linearGradient
       x1="86.132919"
       y1="105.105"
       x2="84.63858"
       y2="20.895"
       id="linearGradient2971"
       xlink:href="#linearGradient5128"
       gradientUnits="userSpaceOnUse"
       gradientTransform="matrix(0.09614231,0,0,0.09614231,1.8468935,1.9430362)" />
    <linearGradient
       x1="25.030451"
       y1="0.28819904"
       x2="24.795872"
       y2="15.37132"
       id="linearGradient3791"
       xlink:href="#linearGradient3309"
       gradientUnits="userSpaceOnUse"
       gradientTransform="matrix(-0.69602538,0.71801718,-0.71801718,-0.69602538,28.302469,-1.7860371)" />
    <linearGradient
       x1="21"
       y1="0"
       x2="21"
       y2="16.004715"
       id="linearGradient3793"
       xlink:href="#linearGradient3397"
       gradientUnits="userSpaceOnUse"
       gradientTransform="matrix(-0.69602538,0.71801718,-0.71801718,-0.69602538,28.302469,-1.7860371)" />
    <radialGradient
       cx="12.478666"
       cy="9.8517065"
       fx="12.478666"
       fy="9.8517065"
       gradientTransform="matrix(0.5236611,0.00399338,-0.00553751,0.7261447,-0.06063105,-2.1256155)"
       gradientUnits="userSpaceOnUse"
       id="radialGradient15659"
       inkscape:collect="always"
       r="19.875"
       xlink:href="#linearGradient5300" />
    <linearGradient
       id="linearGradient5300">
      <stop
         id="stop5302"
         offset="0"
         style="stop-color:#f8f8f7;stop-opacity:1;" />
      <stop
         id="stop5310"
         offset="0.54471505"
         style="stop-color:#b3b6af;stop-opacity:1" />
      <stop
         id="stop5304"
         offset="0.67252082"
         style="stop-color:#6b7264;stop-opacity:1;" />
      <stop
         id="stop5306"
         offset="0.786762"
         style="stop-color:#d1d5cc;stop-opacity:1;" />
      <stop
         id="stop5308"
         offset="1"
         style="stop-color:#e0e3de;stop-opacity:1;" />
    </linearGradient>
    <linearGradient
       gradientUnits="userSpaceOnUse"
       id="linearGradient5318"
       inkscape:collect="always"
       x1="5.2488837"
       x2="36.811779"
       xlink:href="#linearGradient5312"
       y1="23.500004"
       y2="23.500002" />
    <linearGradient
       id="linearGradient5312">
      <stop
         id="stop5314"
         offset="0"
         style="stop-color:#ffffff;stop-opacity:0;" />
      <stop
         id="stop5320"
         offset="0.5"
         style="stop-color:#ffffff;stop-opacity:1" />
      <stop
         id="stop5316"
         offset="1"
         style="stop-color:#ffffff;stop-opacity:0.10625" />
    </linearGradient>
  </defs>
  <g
     transform="scale(0.75,0.75)"
     id="g2957">
    <g
       id="g2959">
      <path
         d="m 6.4309572,0.66884762 c -0.2484169,0 -0.4375,0.18908218 -0.4375,0.43749998 l 0,1.25 c -0.5539029,0.1422005 -1.051164,0.3718783 -1.53125,0.65625 L 3.0125976,4.5184897 c -0.2843711,0.4800856 -0.514049,0.9773468 -0.65625,1.53125 l -1.25,0 c -0.24841697,0 -0.43749998,0.1890821 -0.43749998,0.4375 l 0,3.0818031 c 1e-8,0.2484178 0.189083,0.4375002 0.43749998,0.4375002 l 1.25,0 c 0.1422009,0.553903 0.371879,1.051164 0.65625,1.53125 L 4.96875,13.15625 c 0.4800861,0.284372 0.4708042,0.345202 1.0247072,0.487402 l 0,1.25 c 1e-7,0.248418 0.189083,0.4375 0.4375,0.4375 l 3.1943682,0.05628 c 0.2484176,0 0.4374996,-0.189082 0.4374996,-0.4375 l 0,-1.25 c 0.553903,-0.1422 0.488339,-0.259313 0.968425,-0.543685 l 2.012435,-1.618457 c 0.284372,-0.480083 0.51405,-0.977344 0.65625,-1.531247 l 1.25,0 c 0.248418,0 0.4375,-0.1890828 0.4375,-0.4375002 l 0,-3.0818031 c 0,-0.2484178 -0.189083,-0.4375 -0.4375,-0.4375 l -1.25,0 c -0.1422,-0.5539032 -0.371878,-1.0511644 -0.65625,-1.53125 l -1.44961,-1.5058921 c -0.480086,-0.2843717 -0.977347,-0.5140495 -1.53125,-0.65625 l 0,-1.25 c 0,-0.2484178 -0.1890816,-0.43749998 -0.4374996,-0.43749998 l -3.1943682,0 z M 8,6 c 1.104,0 2,0.896 2,2 0,1.104 -0.896,2 -2,2 C 6.896,10 6,9.104 6,8 6,6.896 6.896,6 8,6 z"
         id="path2961"
         style="fill:url(#linearGradient2967);fill-opacity:1;fill-rule:nonzero;stroke:url(#linearGradient2969);stroke-width:1.33333337;stroke-linecap:butt;stroke-linejoin:round;stroke-miterlimit:4;stroke-opacity:1;stroke-dasharray:none;stroke-dashoffset:0;marker:none;visibility:visible;display:block;overflow:visible;enable-background:accumulate" />
      <path
         d="M 8,3.465116 C 5.4994229,3.465116 3.4651163,5.499423 3.4651163,8 3.4651163,10.500577 5.4994229,12.534884 8,12.534884 10.500576,12.534883 12.534884,10.500577 12.534884,8 12.534884,5.499423 10.500576,3.465116 8,3.465116 z M 8,5.55814 c 1.347907,0 2.44186,1.093953 2.44186,2.44186 0,1.347907 -1.093953,2.44186 -2.44186,2.44186 C 6.652093,10.44186 5.5581395,9.347907 5.5581395,8 5.5581395,6.652093 6.652093,5.55814 8,5.55814 z"
         id="path2963"
         style="opacity:0.05;fill:#000000;fill-opacity:1;stroke:none" />
      <path
         d="M 8.0000001,4 C 5.7943997,4 3.9999999,5.7944001 3.9999999,8.0000008 3.9999999,10.2056 5.7943997,12 8.0000001,12 10.2056,12 12,10.2056 12,8.0000008 12,5.7944001 10.2056,4 8.0000001,4 z"
         id="path2965"
         style="fill:none;stroke:url(#linearGradient2971);stroke-width:1;stroke-miterlimit:4;stroke-dasharray:none" />
    </g>
  </g>
  <g
     transform="matrix(0.75,0,0,0.75,-8,0)"
     id="g3781">
    <g
       transform="translate(10.666667,16.000001)"
       id="g3783">
      <path
         d="m 9.7929968,14.205525 c 0.172886,-0.178385 0.168745,-0.445737 -0.0096,-0.618642 l -1.1096873,-1.320295 0,-3.2727989 1.1730593,-1.1226517 C 10.019673,7.6927699 10.015516,7.425399 9.8371688,7.2524938 L 8.7570698,6.1422726 C 8.5787018,5.9693677 8.3113307,5.9735262 8.1384258,6.1518944 l -1.2209993,1.1671021 -3.2969123,0 L 2.4956249,6.0721948 C 2.3172541,5.8992926 2.049886,5.9034486 1.8769818,6.0818125 L 0.82407053,7.1295751 c -0.1729022,0.178371 -0.1687473,0.4457383 0.00966,0.6186431 l 1.17891727,1.3203094 0.061872,3.3121954 -1.20772967,1.12265 c -0.172903,0.178372 -0.289329,0.327547 -0.1109247,0.500452 l 1.29633757,1.18822 c 0.1783852,0.172888 0.4457385,0.168746 0.618643,-0.0097 l 1.0951652,-1.196682 3.2329963,0 1.0663515,1.220717 c 0.1783849,0.172888 0.4457377,0.168748 0.6186418,-0.0097 l 1.108996,-0.991155 z M 6.2777791,11.705008 C 5.7754021,12.096769 4.9103076,12.25884 4.3036037,11.643504 3.6968993,11.02817 3.8691922,10.235983 4.3034636,9.7289169 4.7377354,9.2218506 5.7166343,9.0329013 6.3446461,9.5417217 6.9726581,10.050543 6.7801565,11.313248 6.2777791,11.705008 z"
         id="path3785"
         style="fill:url(#linearGradient3791);fill-opacity:1;fill-rule:nonzero;stroke:url(#linearGradient3793);stroke-width:1.33333337;stroke-linecap:butt;stroke-linejoin:round;stroke-miterlimit:4;stroke-opacity:1;stroke-dasharray:none;stroke-dashoffset:0;marker:none;visibility:visible;display:block;overflow:visible;enable-background:accumulate" />
    </g>
  </g>
  <g
     id="g6621"
     transform="translate(-6.5874027,-1020.649)">
    <g
       transform="translate(15.012615,1028.7611)"
       style="display:inline;enable-background:new"
       id="g16">
      <path
         style="display:block;overflow:visible;visibility:visible;opacity:1;fill:url(#radialGradient15659);fill-opacity:1;fill-rule:nonzero;stroke:#888a85;stroke-width:1.00000024;stroke-linecap:round;stroke-linejoin:round;stroke-miterlimit:4;stroke-dasharray:none;stroke-dashoffset:0;stroke-opacity:1;marker:none;marker-start:none;marker-mid:none;marker-end:none"
         sodipodi:nodetypes="ccccc"
         id="path101"
         d="M 7.4333322,0.54419421 C 4.7665517,2.4481871 0.58708752,3.6170305 0.58708752,3.6170305 1.6680735,12.408757 7.5684554,14.54267 7.5684554,14.54267 c 0,0 5.8103006,-2.219271 6.9813686,-11.0536744 0,0 -5.0446027,-1.7498096 -7.1164918,-2.94480139 z"
         inkscape:connector-curvature="0" />
      <path
         style="display:block;overflow:visible;visibility:visible;opacity:1;fill:none;fill-opacity:1;fill-rule:nonzero;stroke:url(#linearGradient5318);stroke-width:1.00000036;stroke-linecap:round;stroke-linejoin:round;stroke-miterlimit:4;stroke-dasharray:none;stroke-dashoffset:0;stroke-opacity:1;marker:none;marker-start:none;marker-mid:none;marker-end:none"
         sodipodi:nodetypes="ccccc"
         id="path103"
         d="M 7.4038991,1.7129968 C 5.131315,3.3257294 1.5696477,4.3157706 1.5696477,4.3157706 c 0.9211978,7.4468234 5.9365209,9.2543064 5.9365209,9.2543064 0,0 4.9643184,-1.879781 5.9622804,-9.3627552 0,0 -4.2989223,-1.4821351 -6.0645499,-2.494325 z"
         inkscape:connector-curvature="0" />
      <circle
         transform="matrix(0.2052414,0,0,0.1994275,-2.4760177,2.8158993)"
         style="display:inline;overflow:visible;visibility:visible;opacity:1;fill:#555753;fill-opacity:1;fill-rule:nonzero;stroke:none;stroke-width:1;stroke-linecap:round;stroke-linejoin:round;stroke-miterlimit:4;stroke-dasharray:none;stroke-dashoffset:0;stroke-opacity:0.10625;marker:none;marker-start:none;marker-mid:none;marker-end:none;enable-background:accumulate"
         id="path4758"
         cx="24.1875"
         cy="11.3125"
         r="2.6875" />
      <circle
         transform="matrix(0.2052414,0,0,0.1994275,-2.4760177,2.2855689)"
         style="display:inline;overflow:visible;visibility:visible;opacity:1;fill:#eeeeec;fill-opacity:1;fill-rule:nonzero;stroke:none;stroke-width:1;stroke-linecap:round;stroke-linejoin:round;stroke-miterlimit:4;stroke-dasharray:none;stroke-dashoffset:0;stroke-opacity:0.10625;marker:none;marker-start:none;marker-mid:none;marker-end:none;enable-background:accumulate"
         id="path4853"
         cx="24.1875"
         cy="11.3125"
         r="2.6875" />
      <circle
         transform="matrix(0.2052414,0,0,0.1994275,2.562675,0.8271615)"
         style="display:inline;overflow:visible;visibility:visible;opacity:1;fill:#555753;fill-opacity:1;fill-rule:nonzero;stroke:none;stroke-width:1;stroke-linecap:round;stroke-linejoin:round;stroke-miterlimit:4;stroke-dasharray:none;stroke-dashoffset:0;stroke-opacity:0.10625;marker:none;marker-start:none;marker-mid:none;marker-end:none;enable-background:accumulate"
         id="path4760"
         cx="24.1875"
         cy="11.3125"
         r="2.6875" />
      <circle
         transform="matrix(0.2052414,0,0,0.1994275,2.562675,0.2968311)"
         style="display:inline;overflow:visible;visibility:visible;opacity:1;fill:#eeeeec;fill-opacity:1;fill-rule:nonzero;stroke:none;stroke-width:1;stroke-linecap:round;stroke-linejoin:round;stroke-miterlimit:4;stroke-dasharray:none;stroke-dashoffset:0;stroke-opacity:0.10625;marker:none;marker-start:none;marker-mid:none;marker-end:none;enable-background:accumulate"
         id="path4762"
         cx="24.1875"
         cy="11.3125"
         r="2.6875" />
      <circle
         transform="matrix(0.2052414,0,0,0.1994275,7.5560597,2.8102682)"
         style="display:inline;overflow:visible;visibility:visible;opacity:1;fill:#555753;fill-opacity:1;fill-rule:nonzero;stroke:none;stroke-width:1;stroke-linecap:round;stroke-linejoin:round;stroke-miterlimit:4;stroke-dasharray:none;stroke-dashoffset:0;stroke-opacity:0.10625;marker:none;marker-start:none;marker-mid:none;marker-end:none;enable-background:accumulate"
         id="path4764"
         cx="24.1875"
         cy="11.3125"
         r="2.6875" />
      <circle
         transform="matrix(0.2052414,0,0,0.1994275,7.5560597,2.2799378)"
         style="display:inline;overflow:visible;visibility:visible;opacity:1;fill:#eeeeec;fill-opacity:1;fill-rule:nonzero;stroke:none;stroke-width:1;stroke-linecap:round;stroke-linejoin:round;stroke-miterlimit:4;stroke-dasharray:none;stroke-dashoffset:0;stroke-opacity:0.10625;marker:none;marker-start:none;marker-mid:none;marker-end:none;enable-background:accumulate"
         id="path4766"
         cx="24.1875"
         cy="11.3125"
         r="2.6875" />
      <circle
         transform="matrix(0.2052414,0,0,0.1994275,2.5248097,9.8102682)"
         style="display:inline;overflow:visible;visibility:visible;opacity:1;fill:#555753;fill-opacity:1;fill-rule:nonzero;stroke:none;stroke-width:1;stroke-linecap:round;stroke-linejoin:round;stroke-miterlimit:4;stroke-dasharray:none;stroke-dashoffset:0;stroke-opacity:0.10625;marker:none;marker-start:none;marker-mid:none;marker-end:none;enable-background:accumulate"
         id="path4768"
         cx="24.1875"
         cy="11.3125"
         r="2.6875" />
      <circle
         transform="matrix(0.2052414,0,0,0.1994275,2.5248097,9.2799378)"
         style="display:inline;overflow:visible;visibility:visible;opacity:1;fill:#eeeeec;fill-opacity:1;fill-rule:nonzero;stroke:none;stroke-width:1;stroke-linecap:round;stroke-linejoin:round;stroke-miterlimit:4;stroke-dasharray:none;stroke-dashoffset:0;stroke-opacity:0.10625;marker:none;marker-start:none;marker-mid:none;marker-end:none;enable-background:accumulate"
         id="path4770"
         cx="24.1875"
         cy="11.3125"
         r="2.6875" />
    </g>
  </g>
</svg>
